<?xml version="1.0" encoding="UTF-8"?>
<svg xmlns="http://www.w3.org/2000/svg" width="206" height="56" viewBox="0 0 206 56" fill="none">
  <g clip-path="url(#clip0_160_51)">
    <path d="M62.534 54.4626C62.6551 54.4626 62.752 54.497 62.8368 54.5772C62.9216 54.6573 62.9579 54.749 62.9579 54.8635C62.9579 54.9781 62.9216 55.0697 62.8368 55.1499C62.752 55.23 62.6551 55.2644 62.534 55.2644H58.8641C58.8641 55.2644 58.743 55.2644 58.6945 55.23C58.6461 55.2071 58.5976 55.1842 58.5613 55.1499C58.525 55.1155 58.4886 55.0697 58.4765 55.0239C58.4523 54.9781 58.4402 54.9208 58.4402 54.8635V49.652C58.4402 49.652 58.4402 49.5489 58.4765 49.4916C58.5007 49.4458 58.525 49.4 58.5613 49.3656C58.5976 49.3312 58.6461 49.2969 58.6945 49.2854C58.743 49.2625 58.8035 49.2511 58.8641 49.2511H62.534C62.6551 49.2511 62.752 49.2854 62.8368 49.3656C62.9216 49.4458 62.9579 49.5374 62.9579 49.652C62.9579 49.7665 62.9216 49.8581 62.8368 49.9383C62.752 50.0185 62.6551 50.0528 62.534 50.0528H59.288V51.8626H61.6256C61.7467 51.8626 61.8436 51.8969 61.9284 51.9771C62.0132 52.0573 62.0495 52.1489 62.0495 52.2635C62.0495 52.378 62.0132 52.4696 61.9284 52.5498C61.8436 52.63 61.7467 52.6644 61.6256 52.6644H59.288V54.4741H62.534V54.4626Z" fill="#1C355E"></path>
    <path d="M63.5272 49.652C63.5272 49.5374 63.5636 49.4458 63.6483 49.3656C63.7331 49.2854 63.83 49.2511 63.9511 49.2511C64.0723 49.2511 64.1692 49.2854 64.2539 49.3656C64.3387 49.4458 64.3751 49.5374 64.3751 49.652V54.4626H67.3183C67.4394 54.4626 67.5363 54.497 67.6211 54.5772C67.7058 54.6573 67.7422 54.749 67.7422 54.8635C67.7422 54.9781 67.7058 55.0697 67.6211 55.1499C67.5363 55.23 67.4394 55.2644 67.3183 55.2644H63.9511C63.9511 55.2644 63.83 55.2644 63.7816 55.23C63.7331 55.2071 63.6847 55.1842 63.6483 55.1499C63.612 55.1155 63.5757 55.0697 63.5636 55.0239C63.5393 54.9781 63.5272 54.9208 63.5272 54.8635V49.652Z" fill="#1C355E"></path>
    <path d="M70.6611 54.8635V49.652C70.6611 49.652 70.6611 49.5489 70.6975 49.4916C70.7217 49.4458 70.7459 49.4 70.7823 49.3656C70.8186 49.3312 70.867 49.2969 70.9155 49.2854C70.9639 49.2625 71.0245 49.2511 71.085 49.2511H74.755C74.8761 49.2511 74.973 49.2854 75.0578 49.3656C75.1426 49.4458 75.1789 49.5374 75.1789 49.652C75.1789 49.7665 75.1426 49.8581 75.0578 49.9383C74.973 50.0185 74.8761 50.0528 74.755 50.0528H71.509V51.8626H73.8466C73.9677 51.8626 74.0646 51.8969 74.1494 51.9771C74.2342 52.0573 74.2705 52.1489 74.2705 52.2635C74.2705 52.378 74.2342 52.4696 74.1494 52.5498C74.0646 52.63 73.9677 52.6644 73.8466 52.6644H71.509V54.875C71.509 54.9895 71.4726 55.0811 71.3878 55.1613C71.3031 55.2415 71.2062 55.2759 71.085 55.2759C70.9639 55.2759 70.867 55.2415 70.7823 55.1613C70.6975 55.0811 70.6611 54.9895 70.6611 54.875V54.8635Z" fill="#1C355E"></path>
    <path d="M76.8624 54.8635C76.8624 54.9781 76.826 55.0697 76.7412 55.1499C76.6565 55.23 76.5596 55.2644 76.4384 55.2644C76.3173 55.2644 76.2204 55.23 76.1356 55.1499C76.0509 55.0697 76.0145 54.9781 76.0145 54.8635V49.652C76.0145 49.5374 76.0509 49.4458 76.1356 49.3656C76.2204 49.2854 76.3173 49.2511 76.4384 49.2511C76.5596 49.2511 76.6565 49.2854 76.7412 49.3656C76.826 49.4458 76.8624 49.5374 76.8624 49.652V54.8635Z" fill="#1C355E"></path>
    <path d="M77.6497 54.8635V49.652C77.6497 49.652 77.6497 49.5489 77.686 49.4916C77.7102 49.4458 77.7344 49.4 77.7708 49.3656C77.8071 49.3312 77.8556 49.2969 77.904 49.2854C77.9525 49.2625 78.013 49.2511 78.0736 49.2511C78.1947 49.2511 78.3037 49.2969 78.4006 49.4L81.9373 53.7067V49.652C81.9373 49.5374 81.9736 49.4458 82.0584 49.3656C82.1432 49.2854 82.2401 49.2511 82.3612 49.2511C82.4823 49.2511 82.5792 49.2854 82.664 49.3656C82.7488 49.4458 82.7851 49.5374 82.7851 49.652V54.8635C82.7851 54.9208 82.7851 54.9781 82.7488 55.0239C82.7246 55.0697 82.7003 55.1155 82.664 55.1499C82.6277 55.1842 82.5792 55.2186 82.5308 55.23C82.4823 55.2415 82.4218 55.2644 82.3612 55.2644C82.2401 55.2644 82.1311 55.2186 82.0342 55.127L78.4975 50.8203V54.8635C78.4975 54.9781 78.4612 55.0697 78.3764 55.1499C78.2916 55.23 78.1947 55.2644 78.0736 55.2644C77.9525 55.2644 77.8556 55.23 77.7708 55.1499C77.686 55.0697 77.6497 54.9781 77.6497 54.8635Z" fill="#1C355E"></path>
    <path d="M83.4028 54.6803L85.5224 49.526C85.6072 49.3427 85.7404 49.2511 85.9221 49.2511C86.1038 49.2511 86.237 49.3427 86.3218 49.526L88.4535 54.7032C88.4535 54.7032 88.4898 54.8062 88.4898 54.8635C88.4898 54.9781 88.4535 55.0697 88.3687 55.1499C88.2839 55.23 88.187 55.2644 88.0659 55.2644C87.9448 55.2644 87.8479 55.23 87.7752 55.1499C87.7268 55.1041 87.7026 55.0697 87.6783 55.0239L86.9395 53.2371H84.9047L84.1659 55.0239C84.1659 55.0239 84.1174 55.1155 84.069 55.1499C83.9842 55.23 83.8873 55.2644 83.7662 55.2644C83.6451 55.2644 83.5482 55.23 83.4755 55.1499C83.3907 55.0697 83.3544 54.9781 83.3544 54.8635C83.3544 54.8062 83.3665 54.749 83.4028 54.6803ZM86.6125 52.4353L85.9221 50.7515L85.2317 52.4353H86.6125Z" fill="#1C355E"></path>
    <path d="M89.0713 49.652C89.0713 49.5374 89.1076 49.4458 89.1924 49.3656C89.2772 49.2854 89.3741 49.2511 89.4952 49.2511C89.6163 49.2511 89.7132 49.2854 89.798 49.3656C89.8828 49.4458 89.9191 49.5374 89.9191 49.652V54.4626H92.8623C92.9834 54.4626 93.0803 54.497 93.1651 54.5772C93.2499 54.6573 93.2862 54.749 93.2862 54.8635C93.2862 54.9781 93.2499 55.0697 93.1651 55.1499C93.0803 55.23 92.9834 55.2644 92.8623 55.2644H89.4952C89.4952 55.2644 89.3741 55.2644 89.3256 55.23C89.2772 55.2071 89.2287 55.1842 89.1924 55.1499C89.1561 55.1155 89.1197 55.0697 89.1076 55.0239C89.0834 54.9781 89.0713 54.9208 89.0713 54.8635V49.652Z" fill="#1C355E"></path>
    <path d="M96.2052 49.652C96.2052 49.5374 96.2415 49.4458 96.3263 49.3656C96.4111 49.2854 96.508 49.2511 96.6291 49.2511C96.7502 49.2511 96.8471 49.2854 96.9319 49.3656C97.0167 49.4458 97.053 49.5374 97.053 49.652V54.4626H99.9962C100.117 54.4626 100.214 54.497 100.299 54.5772C100.384 54.6573 100.42 54.749 100.42 54.8635C100.42 54.9781 100.384 55.0697 100.299 55.1499C100.214 55.23 100.117 55.2644 99.9962 55.2644H96.6291C96.6291 55.2644 96.508 55.2644 96.4595 55.23C96.4111 55.2071 96.3627 55.1842 96.3263 55.1499C96.29 55.1155 96.2536 55.0697 96.2415 55.0239C96.2173 54.9781 96.2052 54.9208 96.2052 54.8635V49.652Z" fill="#1C355E"></path>
    <path d="M106.682 52.2635C106.682 53.0881 106.367 53.7983 105.749 54.3824C105.132 54.9666 104.381 55.2644 103.509 55.2644C102.637 55.2644 101.886 54.9666 101.268 54.3824C100.65 53.7983 100.335 53.0881 100.335 52.2635C100.335 51.4388 100.65 50.7286 101.268 50.1445C101.886 49.5603 102.637 49.2625 103.509 49.2625C104.381 49.2625 105.132 49.5603 105.749 50.1445C106.064 50.4423 106.294 50.763 106.452 51.1066C106.609 51.4502 106.682 51.8397 106.682 52.2635ZM103.509 50.0528C103.182 50.0528 102.879 50.1101 102.612 50.2132C102.346 50.3163 102.092 50.4881 101.861 50.7057C101.631 50.9233 101.462 51.1639 101.353 51.4159C101.244 51.6678 101.183 51.9542 101.183 52.2635C101.183 52.8705 101.413 53.3974 101.861 53.8212C102.322 54.2564 102.867 54.4626 103.509 54.4626C104.151 54.4626 104.708 54.245 105.156 53.8212C105.604 53.3974 105.834 52.8705 105.834 52.2635C105.834 51.6564 105.604 51.141 105.156 50.7057C104.696 50.2705 104.151 50.0528 103.509 50.0528Z" fill="#1C355E"></path>
    <path d="M114.567 53.9128C114.567 53.9128 114.676 53.9128 114.724 53.9472C114.773 53.9701 114.821 53.993 114.858 54.0274C114.894 54.0617 114.93 54.1075 114.954 54.1534C114.979 54.1992 114.991 54.2564 114.991 54.3137C114.991 54.4168 114.942 54.5084 114.858 54.6001C114.264 55.0468 113.598 55.2644 112.859 55.2644C111.975 55.2644 111.236 54.9666 110.618 54.3824C110.001 53.7983 109.686 53.0881 109.686 52.2635C109.686 51.4388 109.989 50.7286 110.618 50.1445C111.236 49.5603 111.987 49.2625 112.859 49.2625C113.61 49.2625 114.288 49.4916 114.894 49.9612C114.967 50.0299 115.003 50.1216 115.003 50.2361C115.003 50.2934 115.003 50.3506 114.967 50.3965C114.942 50.4423 114.918 50.4881 114.882 50.5225C114.845 50.5568 114.797 50.5912 114.749 50.6026C114.7 50.6255 114.64 50.637 114.579 50.637C114.482 50.637 114.385 50.6026 114.288 50.5225C114.082 50.3736 113.864 50.259 113.622 50.1788C113.38 50.0987 113.126 50.0643 112.847 50.0643C112.205 50.0643 111.648 50.2819 111.188 50.7172C110.727 51.1524 110.509 51.6678 110.509 52.2749C110.509 52.882 110.74 53.4089 111.188 53.8327C111.648 54.2679 112.193 54.4741 112.847 54.4741C113.404 54.4741 113.889 54.3137 114.313 53.993C114.385 53.9472 114.458 53.9243 114.555 53.9243L114.567 53.9128Z" fill="#1C355E"></path>
    <path d="M115.548 54.8635V49.652C115.548 49.652 115.548 49.5489 115.584 49.4916C115.608 49.4458 115.633 49.4 115.669 49.3656C115.705 49.3312 115.754 49.2969 115.802 49.2854C115.851 49.2625 115.911 49.2511 115.972 49.2511H117.498C117.764 49.2511 118.019 49.2969 118.249 49.4C118.491 49.4916 118.697 49.629 118.867 49.8009C119.036 49.9727 119.182 50.1674 119.278 50.385C119.387 50.6141 119.436 50.8432 119.436 51.0952C119.436 51.2555 119.412 51.4159 119.375 51.5762C119.339 51.7366 119.266 51.874 119.182 52.0229C119.097 52.1604 118.988 52.2864 118.854 52.4124C118.721 52.5269 118.576 52.63 118.406 52.7216L119.666 54.6344C119.714 54.7032 119.739 54.7719 119.739 54.8521C119.739 54.9093 119.739 54.9666 119.702 55.0124C119.678 55.0582 119.654 55.1041 119.618 55.1384C119.581 55.1728 119.533 55.2071 119.484 55.2186C119.436 55.2415 119.375 55.253 119.315 55.253C119.169 55.253 119.048 55.1842 118.951 55.0582L117.546 52.9392H116.359V54.8521C116.359 54.9666 116.323 55.0582 116.238 55.1384C116.154 55.2186 116.057 55.253 115.936 55.253C115.814 55.253 115.717 55.2186 115.633 55.1384C115.548 55.0582 115.512 54.9666 115.512 54.8521L115.548 54.8635ZM116.384 50.0528V52.1489H117.498C117.655 52.1489 117.801 52.126 117.934 52.0687C118.067 52.0115 118.188 51.9428 118.285 51.8397C118.382 51.7366 118.467 51.6335 118.515 51.5075C118.576 51.3815 118.6 51.2441 118.6 51.1066C118.6 50.9692 118.576 50.8203 118.515 50.6943C118.455 50.5683 118.382 50.4537 118.273 50.3621C118.164 50.2705 118.055 50.1903 117.922 50.133C117.789 50.0758 117.643 50.0528 117.498 50.0528H116.384Z" fill="#1C355E"></path>
    <path d="M124.402 54.4626C124.523 54.4626 124.62 54.497 124.705 54.5772C124.789 54.6573 124.826 54.749 124.826 54.8635C124.826 54.9781 124.789 55.0697 124.705 55.1499C124.62 55.23 124.523 55.2644 124.402 55.2644H120.732C120.732 55.2644 120.611 55.2644 120.562 55.23C120.514 55.2071 120.465 55.1842 120.429 55.1499C120.393 55.1155 120.356 55.0697 120.344 55.0239C120.32 54.9781 120.308 54.9208 120.308 54.8635V49.652C120.308 49.652 120.308 49.5489 120.344 49.4916C120.369 49.4458 120.393 49.4 120.429 49.3656C120.465 49.3312 120.514 49.2969 120.562 49.2854C120.611 49.2625 120.671 49.2511 120.732 49.2511H124.402C124.523 49.2511 124.62 49.2854 124.705 49.3656C124.789 49.4458 124.826 49.5374 124.826 49.652C124.826 49.7665 124.789 49.8581 124.705 49.9383C124.62 50.0185 124.523 50.0528 124.402 50.0528H121.156V51.8626H123.493C123.615 51.8626 123.711 51.8969 123.796 51.9771C123.881 52.0573 123.917 52.1489 123.917 52.2635C123.917 52.378 123.881 52.4696 123.796 52.5498C123.711 52.63 123.615 52.6644 123.493 52.6644H121.156V54.4741H124.402V54.4626Z" fill="#1C355E"></path>
    <path d="M125.431 54.6803L127.551 49.526C127.636 49.3427 127.769 49.2511 127.951 49.2511C128.132 49.2511 128.265 49.3427 128.35 49.526L130.482 54.7032C130.482 54.7032 130.518 54.8062 130.518 54.8635C130.518 54.9781 130.482 55.0697 130.397 55.1499C130.312 55.23 130.215 55.2644 130.094 55.2644C129.973 55.2644 129.876 55.23 129.804 55.1499C129.755 55.1041 129.731 55.0697 129.707 55.0239L128.968 53.2371H126.933L126.194 55.0239C126.194 55.0239 126.146 55.1155 126.097 55.1499C126.013 55.23 125.916 55.2644 125.795 55.2644C125.674 55.2644 125.577 55.23 125.504 55.1499C125.419 55.0697 125.383 54.9781 125.383 54.8635C125.383 54.8062 125.395 54.749 125.431 54.6803ZM128.641 52.4353L127.951 50.7515L127.26 52.4353H128.641Z" fill="#1C355E"></path>
    <path d="M131.172 54.4283C131.112 54.3595 131.088 54.2793 131.088 54.1877C131.088 54.1304 131.088 54.0846 131.124 54.0274C131.148 53.9815 131.172 53.9357 131.209 53.9014C131.245 53.867 131.294 53.8326 131.342 53.8212C131.39 53.7983 131.451 53.7868 131.512 53.7868C131.669 53.7868 131.79 53.8441 131.863 53.9701C131.972 54.1304 132.117 54.2564 132.275 54.3366C132.432 54.4168 132.626 54.4626 132.82 54.4626C132.965 54.4626 133.11 54.4397 133.244 54.3824C133.377 54.3252 133.498 54.245 133.595 54.1534C133.692 54.0617 133.776 53.9472 133.837 53.8212C133.898 53.6952 133.922 53.5577 133.922 53.4088C133.922 53.2714 133.898 53.1454 133.837 53.0194C133.789 52.8934 133.704 52.7903 133.619 52.6987C133.522 52.6071 133.413 52.5383 133.292 52.4696C133.171 52.4123 133.038 52.378 132.904 52.3665C132.699 52.3551 132.493 52.2978 132.311 52.2062C132.129 52.1145 131.972 52 131.826 51.8626C131.693 51.7251 131.584 51.5648 131.499 51.3815C131.415 51.1982 131.378 51.015 131.378 50.8088C131.378 50.5683 131.427 50.3392 131.524 50.1445C131.621 49.9497 131.766 49.7665 131.96 49.6176C132.262 49.3656 132.626 49.2396 133.026 49.2396C133.159 49.2396 133.292 49.251 133.425 49.2854C133.558 49.3198 133.68 49.3656 133.813 49.4229C133.946 49.4801 134.055 49.5603 134.164 49.6634C134.273 49.755 134.37 49.8696 134.455 49.9956C134.491 50.0643 134.515 50.133 134.515 50.2132C134.515 50.2705 134.515 50.3277 134.479 50.3735C134.455 50.4194 134.431 50.4652 134.394 50.4995C134.358 50.5339 134.309 50.5683 134.261 50.5797C134.213 50.6026 134.152 50.6141 134.091 50.6141C134.043 50.6141 133.995 50.6141 133.946 50.5912C133.91 50.5797 133.873 50.5568 133.837 50.5224C133.801 50.4995 133.776 50.4652 133.74 50.4308C133.704 50.3964 133.68 50.3506 133.643 50.3048C133.583 50.2132 133.498 50.1559 133.389 50.1101C133.28 50.0643 133.159 50.0414 133.038 50.0414C132.941 50.0414 132.844 50.0643 132.747 50.0986C132.65 50.133 132.565 50.1903 132.493 50.259C132.42 50.3277 132.359 50.4079 132.311 50.4995C132.262 50.5912 132.238 50.6942 132.238 50.7973C132.238 50.889 132.263 50.9921 132.299 51.0722C132.335 51.1639 132.384 51.2326 132.456 51.3128C132.517 51.3815 132.602 51.4388 132.686 51.4846C132.771 51.5304 132.868 51.5533 132.977 51.5648C133.219 51.5877 133.449 51.6449 133.667 51.748C133.886 51.8511 134.079 51.9886 134.237 52.1489C134.394 52.3093 134.527 52.504 134.624 52.7102C134.721 52.9278 134.77 53.1454 134.77 53.3859C134.77 53.9701 134.54 54.4512 134.079 54.8062C133.716 55.104 133.292 55.2529 132.82 55.2529C132.662 55.2529 132.505 55.23 132.347 55.1957C132.19 55.1613 132.044 55.104 131.899 55.0353C131.754 54.9666 131.621 54.875 131.499 54.7719C131.378 54.6688 131.269 54.5428 131.172 54.4168V54.4283Z" fill="#1C355E"></path>
    <path d="M142.085 50.0528H140.523V54.8635C140.523 54.9781 140.486 55.0697 140.402 55.1499C140.317 55.23 140.22 55.2644 140.099 55.2644C139.978 55.2644 139.881 55.23 139.796 55.1499C139.711 55.0697 139.675 54.9781 139.675 54.8635V50.0528H138.113C137.991 50.0528 137.894 50.0185 137.81 49.9383C137.725 49.8581 137.689 49.7665 137.689 49.652C137.689 49.5374 137.725 49.4458 137.81 49.3656C137.894 49.2854 137.991 49.2511 138.113 49.2511H142.085C142.206 49.2511 142.303 49.2854 142.388 49.3656C142.473 49.4458 142.509 49.5374 142.509 49.652C142.509 49.7665 142.473 49.8581 142.388 49.9383C142.303 50.0185 142.206 50.0528 142.085 50.0528Z" fill="#1C355E"></path>
    <path d="M143.914 49.6519V53.1225C143.914 53.3058 143.95 53.4776 144.023 53.6379C144.096 53.7983 144.193 53.9472 144.326 54.0617C144.447 54.1877 144.604 54.2794 144.774 54.3481C144.944 54.4168 145.125 54.4512 145.331 54.4512C145.537 54.4512 145.707 54.4168 145.888 54.3481C146.058 54.2794 146.215 54.1763 146.336 54.0617C146.47 53.9357 146.567 53.7983 146.639 53.6379C146.712 53.4776 146.748 53.3058 146.748 53.1225V49.6519C146.748 49.5374 146.785 49.4458 146.869 49.3656C146.954 49.2854 147.051 49.2511 147.172 49.2511C147.293 49.2511 147.39 49.2854 147.475 49.3656C147.56 49.4458 147.596 49.5374 147.596 49.6519V53.1225C147.596 53.3172 147.572 53.5005 147.511 53.6837C147.451 53.867 147.378 54.0274 147.281 54.1877C147.184 54.3481 147.063 54.4855 146.93 54.623C146.797 54.749 146.639 54.8635 146.47 54.9551C146.3 55.0468 146.118 55.1269 145.925 55.1728C145.731 55.2186 145.537 55.2529 145.331 55.2529C144.701 55.2529 144.181 55.0468 143.745 54.623C143.308 54.1992 143.078 53.7067 143.078 53.111V49.6405C143.078 49.526 143.115 49.4343 143.199 49.3541C143.284 49.274 143.381 49.2396 143.502 49.2396C143.623 49.2396 143.72 49.274 143.805 49.3541C143.89 49.4343 143.926 49.526 143.926 49.6405L143.914 49.6519ZM146.373 48.1286L145.573 48.8731C145.501 48.9418 145.404 48.9762 145.283 48.9762C145.162 48.9762 145.065 48.9418 144.992 48.8616C144.919 48.7814 144.871 48.6898 144.871 48.5867C144.871 48.4836 144.907 48.392 144.968 48.3233L145.767 47.5788C145.852 47.4986 145.949 47.4642 146.058 47.4642C146.179 47.4642 146.276 47.4986 146.349 47.5788C146.421 47.659 146.47 47.7506 146.47 47.8537C146.47 47.9568 146.433 48.0598 146.361 48.1286H146.373Z" fill="#1C355E"></path>
    <path d="M204.377 30.8101L204.147 30.478C202.815 28.5537 201.434 26.3775 200.223 24.4532C199.629 23.5025 199.121 22.7122 198.612 21.9219L197.619 20.3756L190.497 9.26521C189.383 7.53565 188.123 5.57702 186.912 3.50385L186.791 3.28623V3.26332C185.882 1.69412 184.15 0.709082 182.261 0.709082C180.371 0.709082 178.567 1.72849 177.682 3.35495C177.331 4.00783 177.016 4.68361 176.847 5.03869V5.06159C176.786 5.19904 176.629 5.53121 176.544 5.69156C174.461 9.6661 172.232 13.7666 170.27 17.3975L170.246 17.4548L170.221 17.4892C170.088 17.7412 169.955 17.9817 169.822 18.2337C169.882 15.6451 169.943 12.9877 170.052 10.3991C170.052 10.2388 170.076 9.94099 170.1 9.74627C170.149 9.20794 170.161 8.37179 170.149 7.6731C170.125 6.20699 169.967 5.34794 169.604 4.59198C168.792 2.90825 167.145 1.91175 165.219 1.91175C164.759 1.91175 164.371 1.96902 164.02 2.01484C163.729 2.0492 163.475 2.08356 163.16 2.09501C162.93 2.09501 162.7 2.09501 162.47 2.09501C161.101 2.09501 159.817 2.00338 158.679 1.9232C157.734 1.85448 156.91 1.79721 156.159 1.79721C154.997 1.79721 153.483 1.9232 152.187 2.89679C151.545 3.38931 150.782 4.23691 150.527 5.64575C150.091 5.2334 149.619 4.83251 149.122 4.46599C145.598 1.85448 140.644 0.525818 134.419 0.525818C132.178 0.525818 129.707 0.697628 127.103 1.04125C124.511 1.38487 122.791 1.60249 121.362 2.83952C119.509 4.43163 119.533 6.44753 119.618 8.2458C119.594 8.22289 119.569 8.18853 119.545 8.16562C119.303 7.91364 119.061 7.6731 118.806 7.43257C118.552 7.19204 118.298 6.96296 118.031 6.73388C117.789 6.5277 117.547 6.33299 117.304 6.13827C117.28 6.11536 117.256 6.10391 117.232 6.081C114.155 3.67566 110.51 2.12938 106.597 1.55668C106.573 1.55668 106.537 1.55668 106.513 1.54522C106.21 1.49941 105.895 1.46504 105.58 1.43068C105.519 1.43068 105.459 1.41923 105.398 1.40777C105.108 1.38487 104.817 1.36196 104.514 1.33905C104.429 1.33905 104.357 1.3276 104.272 1.3276C103.896 1.30469 103.521 1.30469 103.146 1.30469C102.77 1.30469 102.395 1.30469 102.019 1.3276C101.934 1.3276 101.862 1.33905 101.777 1.33905C101.486 1.3505 101.183 1.37341 100.893 1.40777C100.832 1.40777 100.772 1.41923 100.711 1.43068C100.396 1.46504 100.093 1.49941 99.7784 1.54522C99.7541 1.54522 99.7299 1.54522 99.6936 1.55668C95.7814 2.12938 92.1236 3.68712 89.0593 6.081C89.0351 6.10391 89.0108 6.11536 88.9866 6.13827C88.7444 6.33299 88.5022 6.5277 88.2599 6.73388C87.9934 6.96296 87.7391 7.19204 87.4847 7.43257C87.2304 7.6731 86.9882 7.91364 86.7459 8.16562C86.54 8.38325 86.3341 8.61233 86.1282 8.84141C86.104 8.86432 86.0798 8.89868 86.0555 8.92159C84.1782 11.0749 82.7853 13.5375 81.9496 16.172C82.2766 11.6934 82.7005 7.6731 82.7126 7.63874C82.7126 7.58147 82.7126 7.5242 82.7248 7.46693C82.7974 6.16118 82.7369 4.25982 81.2955 2.93115C79.9632 1.69412 78.316 1.69412 77.771 1.69412C77.2986 1.69412 76.8141 1.72849 76.4023 1.76285C76.0874 1.78576 75.7604 1.80866 75.4334 1.82012C73.8467 1.88884 72.2237 1.9003 70.637 1.9232C69.4622 1.93466 68.3963 1.95757 67.3184 1.98047H67.2941C65.9134 2.01484 64.5932 2.58753 63.6605 3.54967C63.5879 3.62985 63.5152 3.72148 63.4425 3.80166C63.3093 3.73293 63.1761 3.66421 63.0307 3.59548C60.3661 2.28973 57.4592 1.49941 54.3828 1.27033C53.6924 1.22451 53.0141 1.19015 52.3359 1.19015C46.8976 1.19015 41.8712 2.80516 37.3897 6.00082C37.3897 6.00082 37.3897 6.00082 37.3776 6.01227C37.3534 6.03518 37.3292 6.04664 37.3049 6.06955C36.5903 5.51975 35.8273 5.0845 35.2096 4.74088L34.9552 4.59198C32.1453 2.95406 29.1899 1.99193 25.6533 1.54522C25.6533 1.54522 25.629 1.54522 25.6169 1.54522C24.539 1.41923 23.461 1.3505 22.4194 1.3505C21.9833 1.3505 21.5352 1.3505 21.1113 1.38487C16.6541 1.61395 12.536 3.02279 8.85398 5.57702C6.52849 7.19203 4.59057 9.17357 3.08869 11.4873C3.08869 11.4873 3.08869 11.4987 3.07658 11.5102C1.51414 13.8812 0.545184 16.5041 0.169714 19.276C-0.0119653 20.6276 -0.0483011 22.002 0.0607064 23.3651C0.181826 24.7854 0.448289 26.1827 0.884319 27.5343C1.70793 30.1229 3.06447 32.5053 4.9176 34.6472C6.72228 36.7433 8.93876 38.4958 11.4944 39.8702C11.5065 39.8702 11.5186 39.8817 11.5307 39.8932C14.159 41.2676 17.0295 42.1496 20.0454 42.5276C20.0454 42.5276 20.0575 42.5276 20.0696 42.5276C21.0749 42.6421 22.0802 42.7108 23.0855 42.7108C25.1324 42.7108 27.1794 42.4588 29.1536 41.9549H29.1778C30.5344 41.5998 32.0726 41.0729 33.3807 40.4888C34.6645 39.9275 35.5972 39.3892 36.2754 38.7936C37.1596 39.4121 38.0922 39.9619 39.0854 40.4544C41.7258 41.7602 44.6327 42.539 47.7333 42.7796C47.7333 42.7796 47.7454 42.7796 47.7576 42.7796C48.4358 42.8254 49.1262 42.8597 49.8045 42.8597C54.7461 42.8597 59.3366 41.5196 63.491 38.8852C64.1208 40.9698 65.6954 41.7602 66.41 42.0121C67.1003 42.2641 67.8634 42.3672 69.0382 42.3672C69.9466 42.3672 71.0004 42.3099 71.5696 42.2756C71.8724 42.2527 72.2842 42.2298 72.5144 42.2298L76.0147 42.1381H76.039C79.5878 42.0465 83.2456 41.9549 86.7944 41.9205C86.9882 41.9205 87.2183 41.9205 87.4847 41.9434H87.509C87.7875 41.9549 88.2236 41.9778 88.6959 41.9778C89.6043 41.9778 91.518 41.9778 92.9957 40.9011C95.0789 41.9205 97.3318 42.6192 99.6694 42.9628C99.6936 42.9628 99.7178 42.9628 99.7542 42.9743C100.057 43.0201 100.372 43.0545 100.687 43.0888C100.747 43.0888 100.808 43.1003 100.868 43.1117C101.159 43.1346 101.45 43.1575 101.753 43.1804C101.837 43.1804 101.91 43.1919 101.995 43.1919C102.37 43.2148 102.746 43.2148 103.121 43.2148C103.497 43.2148 103.872 43.2148 104.248 43.1919C104.332 43.1919 104.405 43.1804 104.49 43.1804C104.781 43.169 105.083 43.1461 105.374 43.1117C105.435 43.1117 105.495 43.1003 105.556 43.0888C105.871 43.0545 106.173 43.0201 106.488 42.9743C106.513 42.9743 106.549 42.9743 106.573 42.9628C110.485 42.3901 114.143 40.8324 117.207 38.4385C117.244 38.4156 117.268 38.3927 117.292 38.3698C117.534 38.1865 117.765 37.9918 117.995 37.7856C118.261 37.5565 118.516 37.3275 118.77 37.0869C119.024 36.8464 119.266 36.6059 119.509 36.3539C119.63 36.2279 119.751 36.0904 119.872 35.953C119.993 37.4764 120.671 38.9081 121.81 40.0191C123.118 41.2905 124.935 42.0121 126.8 42.0121C126.982 42.0121 127.163 42.0121 127.345 41.9892H127.357C127.357 41.9892 127.369 41.9892 127.382 41.9892C127.587 41.9778 127.89 41.9549 128.036 41.9434C128.641 41.932 129.259 41.9205 129.913 41.9205C130.167 41.9205 130.422 41.9205 130.676 41.9205C130.882 41.9205 131.088 41.9205 131.282 41.9205C132.032 41.9205 132.674 41.9205 133.292 41.8976C133.958 41.8861 135.981 41.8289 137.374 40.3857C137.386 40.3742 137.398 40.3513 137.422 40.3399C138.137 39.5724 138.428 38.7134 138.524 37.9116C139.227 38.8508 139.929 39.813 140.62 40.7637C141.395 41.8289 142.643 43.2721 144.653 43.5012C144.835 43.5241 145.016 43.5355 145.198 43.5355C147.136 43.5355 148.456 42.3787 149.522 41.4394C149.704 41.2791 149.91 41.1073 150.116 40.924C150.54 40.5689 150.988 40.2139 151.436 39.8588C151.63 40.191 151.86 40.5117 152.163 40.8095C152.247 40.8896 152.332 40.9698 152.417 41.0385L152.465 41.0729C152.683 41.2562 152.913 41.4051 153.168 41.5425C154.379 42.1839 155.736 42.2641 156.777 42.2641C157.371 42.2641 157.916 42.2298 158.364 42.2069C158.63 42.1954 158.945 42.1725 159.151 42.1725C159.248 42.1725 159.357 42.1725 159.466 42.1725C160.132 42.1725 160.798 42.1954 161.501 42.2069H161.561C162.3 42.2298 163.088 42.2527 163.851 42.2527H163.899C164.795 42.2527 166.116 42.161 167.315 41.3936C167.375 41.3593 167.424 41.3249 167.472 41.2791C167.581 41.3134 167.678 41.3364 167.739 41.3593C169.265 41.8289 171.045 42.3787 172.826 43.0086C173.467 43.2377 174.146 43.3637 174.824 43.3637C177.307 43.3637 179.523 41.7945 180.226 39.5381C180.311 39.2746 180.383 39.0112 180.456 38.7821C180.492 38.6676 180.529 38.5301 180.565 38.3927C181.425 38.3927 182.66 38.427 184.719 38.4958H184.744C185.325 38.5187 185.785 38.5301 186.088 38.5416C186.185 38.5416 186.294 38.5416 186.415 38.5416C186.56 38.5416 186.73 38.5416 186.9 38.5416H187.069C187.324 38.5416 187.578 38.5416 187.808 38.5416C188.159 38.5416 188.426 38.5416 188.62 38.5645C188.789 38.8852 188.995 39.2975 189.128 39.5953V39.6183C190.133 41.7143 192.35 43.0774 194.785 43.0774C196.032 43.0774 197.243 42.7223 198.285 42.0465C198.745 41.7487 199.169 41.4623 199.448 41.2791L199.472 41.2562C199.702 41.0958 199.993 40.9011 200.138 40.8095C200.683 40.4658 201.216 40.168 201.797 39.8473L201.846 39.8244H201.858C202.245 39.5953 202.645 39.3777 203.069 39.1257C204.607 38.2209 205.552 37.0755 205.855 35.7354C206.327 33.708 205.225 32.1388 204.341 30.8789L204.377 30.8101Z" fill="white"></path>
    <path d="M120.853 18.9209C120.805 18.8637 120.744 18.7949 120.696 18.7377C120.042 17.9359 119.436 17.0997 118.77 16.3209C118.443 15.9429 118.043 15.6222 117.619 15.3358C117.462 15.2327 117.304 15.164 117.135 15.1182C117.062 15.1411 116.977 15.164 116.905 15.1869C116.287 15.416 116.045 15.92 116.275 16.5041C116.396 16.8248 116.59 17.1112 116.747 17.4205C116.977 17.8786 116.929 18.1191 116.444 18.3139C115.851 18.5429 115.221 18.7377 114.591 18.8293C114.337 18.8637 114.107 18.8522 113.889 18.8064C113.84 18.8064 113.792 18.8178 113.743 18.8293C113.319 18.8866 112.92 18.8293 112.581 18.6346C112.314 18.4971 112.072 18.2795 111.878 18.0161C111.6 17.6495 111.382 17.2372 111.127 16.8592C110.958 16.6072 110.788 16.3323 110.558 16.1376C110.461 16.0574 110.364 15.9887 110.255 15.9429C110.025 16.0574 109.831 16.2865 109.771 16.5958C109.662 17.0768 109.662 17.6037 109.746 18.0848C110.013 19.4936 110.643 20.6963 112.048 21.4064C112.375 21.5783 112.714 21.6813 113.065 21.7386C113.21 21.7615 113.356 21.7844 113.513 21.7959C113.55 21.7959 113.574 21.7959 113.61 21.7959C113.852 21.7844 114.167 21.6928 114.361 21.7959C114.397 21.7959 114.434 21.7959 114.47 21.7959C114.785 21.773 115.233 21.6241 115.366 21.9791C115.451 22.2082 115.269 22.5977 115.088 22.8267C114.543 23.4796 113.937 24.0867 113.356 24.7166C112.956 25.1519 112.544 25.5871 112.157 26.0339C111.587 26.6982 111.285 27.4656 111.297 28.3361C111.297 28.7141 111.297 29.0921 111.26 29.47C111.212 30.1 110.97 30.6384 110.449 31.0621C110.219 31.2454 109.989 31.4401 109.746 31.6234C109.08 32.1159 108.559 32.7115 108.184 33.4217C108.027 33.7309 107.857 34.0287 107.675 34.3265C107.251 35.0252 106.609 35.4376 105.786 35.6094C105.483 35.6781 105.204 35.6781 104.962 35.6094C104.962 35.6094 104.95 35.6094 104.938 35.6094C104.223 35.7583 103.63 35.5521 103.315 34.8763C102.988 34.1547 102.709 33.3873 102.588 32.6199C102.479 31.967 102.407 31.3141 102.334 30.6613C102.261 29.9397 102.189 29.2181 102.08 28.4965C101.874 27.0303 101.377 25.6444 100.372 24.4761C99.4634 23.4338 98.3612 22.7695 97.0289 22.6664C96.932 22.6664 96.8351 22.6893 96.7261 22.7007C96.3143 22.758 95.9267 22.8955 95.527 22.9756C95.1636 23.0558 94.8487 23.0558 94.5701 22.9985C93.7223 23.1474 93.1046 22.8955 92.6201 22.1853C92.063 21.3606 91.9418 20.4443 92.0387 19.4936C92.1841 17.9932 92.9229 16.7561 94.0251 15.7138C95.7087 14.1332 97.7435 13.1596 100.093 12.8045C100.251 12.7816 100.408 12.7816 100.578 12.7816C100.675 12.7816 100.771 12.793 100.844 12.8274C100.88 12.8274 100.917 12.816 100.953 12.8045C101.111 12.7816 101.268 12.7816 101.438 12.7816C101.777 12.7816 101.958 12.919 102.031 13.2627C102.261 14.2935 102.77 14.8548 103.63 14.9808C103.715 14.9808 103.799 14.9578 103.884 14.9464C104.235 14.8891 104.599 14.8204 104.926 14.7059C105.326 14.5684 105.701 14.557 106.089 14.6257C106.561 14.5341 107.021 14.6028 107.494 14.786C107.833 14.912 108.184 15.0495 108.547 15.1182C109.298 14.9349 109.759 14.2362 109.577 13.4116C109.286 12.1287 107.954 10.9948 106.452 11.0062C104.902 11.0062 103.509 10.6053 102.14 10.0212C101.668 9.81501 101.195 9.68902 100.723 9.6432C100.251 9.68902 99.7662 9.81501 99.2938 10.0326C98.7972 10.2503 98.2885 10.4335 97.7798 10.6282C96.7987 10.9833 97.0531 10.0441 97.1621 9.84937C97.2348 9.71193 97.2711 9.65465 97.9251 9.37976C98.5065 9.12777 99.1121 8.9216 99.7177 8.72688C100.735 8.40617 101.595 7.87929 102.322 7.16914C102.491 7.00879 102.649 6.83697 102.806 6.65371C103.121 6.27573 103.448 5.9092 103.787 5.55413C103.908 5.42813 104.042 5.3136 104.175 5.21051C103.836 5.1876 103.485 5.17615 103.145 5.17615C99.0758 5.17615 95.309 6.45899 92.281 8.61234C92.063 9.62029 91.8934 10.6855 91.2151 11.3384C90.8154 11.7164 90.1129 12.2776 89.4104 12.4952C88.8896 12.6556 88.4051 12.8503 87.9207 13.0565C86.116 15.7138 85.0623 18.8751 85.0623 22.2655C85.0623 22.8611 85.0986 23.4567 85.1591 24.0409C85.7042 24.5219 86.3219 24.9228 87.0365 25.2321C87.1697 25.2893 87.303 25.3581 87.4362 25.4268C88.5142 25.8964 89.2409 26.5722 89.6163 27.4656C90.9123 27.5687 91.9418 27.8207 92.0751 28.9203C92.4626 32.0586 92.6686 34.4296 92.5353 36.079C95.5149 38.1407 99.1848 39.3663 103.145 39.3663C113.114 39.3663 121.229 31.6921 121.229 22.2655C121.229 21.1315 121.107 20.0205 120.889 18.9438L120.853 18.9209ZM113.84 33.2957C113.719 32.7459 112.363 32.975 113.949 31.2569C115.015 30.1 115.064 30.7414 115.766 30.5009C115.136 31.5547 114.555 32.1388 113.84 33.3071V33.2957Z" fill="#1C355E"></path>
    <path d="M90.8033 34.6361C90.8033 34.6361 90.8033 34.6477 90.8033 34.6593C90.8033 34.6477 90.7912 34.6245 90.7791 34.6129C90.7791 34.6129 90.7791 34.6245 90.7791 34.6361H90.8033Z" fill="white"></path>
    <path d="M96.8229 48.5295C96.8229 48.5295 96.835 48.564 96.8471 48.5755C96.835 48.541 96.8229 48.5181 96.8108 48.4836C96.8108 48.4951 96.8108 48.5066 96.8229 48.5295Z" fill="#91C024"></path>
    <path d="M32.2784 32.4939C32.1815 32.3106 32.0725 32.093 31.9514 31.841C31.6122 31.1538 30.9218 29.7335 30.3647 29.7106C30.1467 29.7106 29.5774 29.8709 29.1414 29.9855C28.5479 30.1573 27.9302 30.3291 27.3609 30.3864C26.4768 30.478 25.7379 30.4207 25.0597 30.352H25.0475C22.504 30.0427 20.4087 28.989 18.8099 27.2251C17.8773 26.2057 17.2717 25.1061 16.981 23.9263C16.763 23.0558 16.7024 22.1509 16.8356 21.2117C17.1263 19.0011 18.3133 17.2028 20.3723 15.8742C23.2671 14.0301 26.5979 13.7552 29.7349 15.0838C31.0672 15.6489 32.1774 15.2671 33.0657 13.9384C33.2473 13.6635 33.5259 13.297 33.8529 12.8847C34.4101 12.1631 35.5607 10.6626 35.597 10.1701C35.6334 9.51721 33.6955 8.40617 33.0657 8.03964L32.7992 7.89074C30.4979 6.55062 28.0392 5.74885 25.096 5.38232C23.8121 5.23342 22.5525 5.1876 21.3292 5.24487C17.6835 5.43959 14.3164 6.58499 11.2884 8.69252C9.39891 10.0097 7.82435 11.6133 6.60105 13.4917C5.36563 15.4275 4.59046 17.535 4.28767 19.7685C4.14232 20.8681 4.10599 21.9791 4.20288 23.0673C4.29978 24.2012 4.51779 25.3237 4.85693 26.4233C5.52309 28.5079 6.61316 30.4436 8.12715 32.1846C9.61692 33.9142 11.4337 35.3574 13.5412 36.4799C15.7213 37.6138 18.1074 38.3469 20.6146 38.6676C23.1581 38.9768 25.6774 38.8165 28.1119 38.198C30.4131 37.6024 33.429 36.3424 33.7439 35.6666C33.9619 35.1856 33.1262 33.8569 32.7265 33.2155C32.5691 32.9635 32.4237 32.723 32.3147 32.5168L32.2784 32.4939Z" fill="#CE0E2D"></path>
    <path d="M65.3803 22.2998L65.1865 16.4239C65.1501 15.4045 65.1259 14.3737 65.1017 13.3314C65.0653 12.1172 65.0411 10.8917 64.9927 9.66609C63.8541 8.63523 62.5582 7.75327 61.1047 7.04313C58.9367 5.97791 56.5506 5.33648 54.0192 5.14177C48.8474 4.76378 44.0753 6.09245 39.8362 9.10484C37.8498 10.5366 36.1784 12.2547 34.8703 14.2019C33.5258 16.2063 32.6417 18.3711 32.242 20.6619C32.0603 21.6928 31.9997 22.7236 32.0361 23.743C32.0724 24.9457 32.2541 26.1369 32.5932 27.2938C33.1988 29.3669 34.2404 31.2683 35.6939 32.9406C37.1352 34.6014 38.9157 35.9644 40.9868 36.9838C43.1427 38.0491 45.5167 38.679 48.0602 38.8852C53.2441 39.2632 58.0162 37.9345 62.2311 34.9221C63.515 33.9943 64.6535 32.9406 65.6588 31.7952C65.5862 29.1951 65.5014 26.5951 65.4166 23.9836C65.3924 23.4223 65.3803 22.8496 65.3681 22.2884L65.3803 22.2998ZM54.4432 28.1299C52.7475 29.3326 50.8701 29.9511 48.8353 29.9511C48.5689 29.9511 48.3024 29.9511 48.0359 29.9167C45.6862 29.722 43.7604 28.8057 42.3312 27.1792C41.5197 26.2285 41.0352 25.1862 40.8051 24.0752C40.6355 23.2391 40.5871 22.3686 40.7446 21.4408C41.12 19.3103 42.2707 17.535 44.1722 16.1834C46.1101 14.8204 48.254 14.2133 50.5916 14.3966C52.9655 14.5684 54.8792 15.4962 56.2842 17.1455C57.7255 18.7949 58.2705 20.7192 57.9072 22.8611C57.8345 23.2963 57.7013 23.7087 57.5559 24.121C57.0109 25.7017 55.9814 27.0532 54.4553 28.1299H54.4432Z" fill="#E87200"></path>
    <path d="M90.5731 33.7882C90.5489 32.9635 90.5489 32.2075 90.561 31.4401V30.2604C90.561 30.2604 90.561 30.2489 90.561 30.2375C90.561 29.3784 89.8101 28.6797 88.8895 28.6912C88.2961 28.6912 87.642 28.7713 87.0849 28.8286C86.7094 28.863 86.3582 28.9088 86.0554 28.9202C84.2507 29.0233 82.5792 29.1264 80.7745 29.2753C79.4665 29.3899 78.5702 29.1951 78.013 28.6453C76.4142 27.0418 78.5581 7.2264 78.5581 7.2264C78.6307 6.03519 78.4248 5.74884 78.3643 5.69157C78.2674 5.59993 78.0372 5.57703 77.7344 5.57703C77.4316 5.57703 77.0683 5.59993 76.7049 5.6343C76.3537 5.6572 75.9782 5.69157 75.5664 5.70302C73.9313 5.77174 72.2962 5.79465 70.6611 5.80611C69.571 5.81756 68.4809 5.82901 67.403 5.86338C67.403 5.86338 67.3908 5.86338 67.3787 5.86338C66.8216 5.87483 66.3977 6.33299 66.4219 6.84842C66.4219 6.91714 66.4219 6.97441 66.434 7.04314L66.4582 7.35239C66.5188 8.25726 66.543 9.18503 66.5793 10.1128C66.5915 10.5137 66.6157 10.8917 66.6278 11.2926C66.6399 11.7049 66.652 12.1058 66.6641 12.5181C66.6762 13.1481 66.7005 13.7895 66.7126 14.408C66.7368 15.4389 66.761 16.4812 66.7974 17.4892L66.9911 23.3651C67.0033 23.8805 67.0154 24.3845 67.0396 24.8999C67.0396 24.9915 67.0396 25.0717 67.0396 25.1633C67.1002 26.6982 67.1607 28.2216 67.1849 29.7564C67.1971 30.5811 67.2334 31.3943 67.2576 32.219C67.2576 32.6313 67.2818 33.0437 67.2939 33.456C67.3061 34.0516 67.3303 34.6472 67.3545 35.2428C67.3545 35.4719 67.3545 35.7354 67.3424 36.0217C67.3061 36.9151 67.2697 38.1407 67.8632 38.3583C68.3598 38.5416 70.3462 38.4271 71.303 38.3583C71.739 38.3354 72.1145 38.3125 72.3931 38.3011L75.8934 38.2094C79.527 38.1178 83.1727 38.0262 86.77 37.9803C87.0243 37.9803 87.3029 37.9803 87.6299 38.0033C88.4051 38.0376 90.2098 38.1063 90.5126 37.694C90.8154 37.2817 90.6579 35.3459 90.6094 34.6129C90.5852 34.2922 90.561 33.9944 90.5489 33.7767L90.5731 33.7882Z" fill="#F3C300"></path>
    <path d="M200.925 32.9635L200.683 32.6199C199.314 30.6498 197.97 28.5079 196.662 26.4462C196.129 25.5986 195.596 24.7625 195.075 23.9378L194.082 22.3915L186.96 11.2811C185.761 9.41411 184.526 7.47839 183.29 5.38231L183.157 5.15323V5.13032C182.757 4.45454 181.716 4.45454 181.34 5.14178C181.037 5.71448 180.747 6.32154 180.589 6.66516C180.444 6.97442 180.311 7.24931 180.214 7.44403C178.155 11.3613 176.035 15.29 173.903 19.1958C173.891 19.2302 173.867 19.2531 173.855 19.2874C172.837 21.1659 171.82 23.0329 170.815 24.9114C170.342 25.7819 169.882 26.6638 169.41 27.5572C168.574 29.1264 167.726 30.7071 166.878 32.2419C166.721 32.5282 166.563 32.8146 166.406 33.101C166.321 33.2613 166.188 33.456 166.055 33.6622C166.055 33.6622 166.055 33.6851 166.031 33.6966C166.031 33.6966 166.031 33.708 166.018 33.7195C165.643 34.3151 165.389 34.7618 165.207 35.1168C165.062 35.4032 164.977 35.6208 164.928 35.7926C164.856 36.0332 164.977 36.2966 165.207 36.4226C165.413 36.5371 165.691 36.6402 166.018 36.7548C166.273 36.8464 166.551 36.938 166.818 37.0182C167.339 37.1786 167.847 37.316 168.162 37.3962C168.489 37.4878 168.78 37.568 168.986 37.6253C170.657 38.1407 172.462 38.7019 174.255 39.3319C174.255 39.3319 174.267 39.3319 174.279 39.3319C175.102 39.6297 176.011 39.1945 176.265 38.3927C176.338 38.1751 176.398 37.946 176.459 37.7169C176.834 36.3997 177.27 34.9107 178.7 34.5442C179.269 34.3953 181.219 34.4411 184.853 34.5556C185.446 34.5785 185.918 34.59 186.185 34.6014C186.403 34.6014 186.681 34.6014 186.984 34.6014C187.263 34.6014 187.541 34.6014 187.808 34.6014C189.273 34.6014 190.497 34.7045 191.187 35.2658C191.89 35.8385 192.398 36.9151 192.895 37.946C192.895 37.946 192.895 37.9574 192.895 37.9689C193.428 39.0799 194.893 39.4694 195.959 38.7821C196.407 38.4958 196.831 38.2094 197.086 38.0262C197.401 37.82 197.667 37.6367 197.873 37.5107C198.515 37.1098 199.12 36.7662 199.738 36.4226C200.114 36.205 200.501 35.9988 200.889 35.7583C201.276 35.5292 201.749 35.197 201.821 34.8534C201.918 34.4296 201.446 33.7538 200.901 32.975L200.925 32.9635ZM187.275 26.8585C186.827 27.5229 186.052 27.6832 185.107 27.6832C184.707 27.6832 184.271 27.6489 183.823 27.6259L183.266 27.5916C181.788 27.5114 180.783 27.3969 180.25 26.6294C179.693 25.8048 180.068 24.8426 180.65 23.3651L180.771 23.0329C181.837 20.0892 182.321 19.2645 183.302 19.2531C184.283 19.2416 185.531 21.5668 186.463 23.2505L186.851 23.9378C187.396 24.8884 187.868 25.988 187.275 26.8585Z" fill="#715091"></path>
    <path d="M163.56 37.1786C162.76 36.0332 163.85 34.3151 164.638 33.0666C164.771 32.849 164.892 32.6657 164.977 32.5168C165.074 32.345 165.171 32.1617 165.268 31.9899C165.304 30.5811 165.352 29.1722 165.401 27.7749C165.437 26.5493 165.486 25.3352 165.51 24.121C165.546 22.6435 165.582 21.1659 165.619 19.6769C165.619 19.3447 165.643 19.0011 165.643 18.6689C165.704 15.8513 165.776 13.0221 165.885 10.2274C165.885 10.0097 165.909 9.73483 165.946 9.42557C166.006 8.71542 166.043 6.65371 165.813 6.18409C165.461 5.46249 164.928 5.92065 163.221 5.96647C158.981 6.06955 155.554 5.31359 154.718 5.93211C154.597 6.02374 154.536 6.22991 154.524 6.52771C154.5 7.03169 154.524 7.66166 154.561 8.26872C154.585 8.70397 154.597 9.12777 154.597 9.50575L154.694 17.6839C154.694 17.9931 154.694 18.3139 154.694 18.6231C154.767 23.9149 154.827 29.2066 154.863 34.4983C154.863 34.7274 154.863 35.0023 154.839 35.3116C154.803 36.0217 154.73 37.694 155.094 38.0376L155.142 38.072C155.735 38.3812 157.153 38.3011 158.097 38.2552C158.461 38.2323 158.788 38.2209 159.078 38.2094C159.938 38.2094 160.798 38.2209 161.658 38.2438C162.397 38.2667 163.148 38.2896 163.875 38.2782C164.553 38.2782 164.844 38.1751 164.977 38.0949C164.311 37.82 163.814 37.5222 163.56 37.1442V37.1786Z" fill="#008996"></path>
    <path d="M152.09 31.9555C147.935 28.2903 147.16 27.3739 146.954 26.9845C146.179 25.5413 147.56 24.4188 148.468 23.6743C148.723 23.4681 148.965 23.2849 149.147 23.0902C149.958 22.2655 150.527 21.1201 150.903 19.5738C151.036 18.9782 151.109 18.4169 151.145 17.8671C151.181 17.2028 151.145 16.5843 151.048 16.0001C150.624 12.2547 149.122 9.42555 146.555 7.52419C142.667 4.64924 136.308 3.75583 127.648 4.88977C124.943 5.24103 123.635 6.36352 123.724 8.25724C123.748 8.8414 123.784 9.52864 123.796 10.3304C123.808 12.1516 123.833 13.9613 123.857 15.7825C123.857 16.6301 123.869 17.4777 123.881 18.3253C123.881 18.6116 123.881 18.898 123.881 19.1843C123.942 24.247 124.002 29.3211 124.014 34.3723C124.014 34.3723 124.014 34.4067 124.014 34.4181C124.014 34.6014 124.014 34.8305 124.002 35.0825C124.002 35.1397 124.002 35.2199 124.002 35.3001C123.954 36.8922 125.371 38.1636 127.054 38.0491C127.054 38.0491 127.066 38.0491 127.079 38.0491C127.418 38.0261 127.708 38.0032 127.951 37.9918C128.871 37.9689 129.792 37.9689 130.712 37.9689C131.596 37.9689 132.396 37.9689 133.231 37.946C134.091 37.9231 134.309 37.7627 134.358 37.7054C134.515 37.5336 134.455 36.9266 134.406 36.331C134.382 36.0446 134.346 35.7353 134.334 35.4146L134.297 34.7961C133.922 28.3475 134.019 28.1185 134.14 27.855C134.285 27.5228 134.588 27.3167 134.939 27.2823C134.976 27.2823 135 27.2823 135.036 27.2823C135.654 27.2823 136.211 27.8092 137.289 29.4013L137.386 29.5502C138.209 30.6612 139.045 31.7608 139.869 32.8604C141.274 34.7274 142.679 36.5829 144.047 38.4958C144.714 39.4235 145.065 39.5495 145.186 39.561C145.465 39.6068 146.094 39.0685 146.736 38.5072C146.942 38.3239 147.16 38.1407 147.39 37.946C148.408 37.0869 149.486 36.2851 150.515 35.5063C151.193 35.0023 151.86 34.4983 152.526 33.9829C153.216 33.4331 153.265 33.204 153.265 33.1697C153.265 32.9406 152.611 32.3564 152.114 31.9212L152.09 31.9555ZM137.955 19.5852C137.434 19.6998 136.962 19.757 136.55 19.757C136.017 19.757 135.557 19.6654 135.194 19.4821C134.576 19.1729 134.358 18.6918 134.261 18.1764C134.2 17.8442 134.176 17.5006 134.176 17.1455C134.176 16.9279 134.176 16.7103 134.152 16.5041C134.079 15.5305 133.995 14.5569 133.91 13.5833L133.825 12.5983C133.789 12.1058 134.188 11.682 134.709 11.6705C135.908 11.6476 137.132 11.7851 138.331 12.1058C139.396 12.3807 140.269 12.7816 140.935 13.3084C141.746 13.9728 142.158 14.7975 142.182 15.7596V15.7825C142.17 16.6301 141.892 17.3403 141.371 17.9244C140.68 18.7147 139.566 19.276 137.967 19.6081L137.955 19.5852Z" fill="#80BC00"></path>
  </g>
  <defs>
    <clipPath id="clip0_160_51">
      <rect width="206" height="54.7386" fill="white" transform="translate(0 0.525818)"></rect>
    </clipPath>
  </defs>
</svg>
